<svg xmlns="http://www.w3.org/2000/svg" width="103" height="38" viewBox="0 0 103 38">
    <defs>
        <style>
            .cls-1{fill:#172324}.cls-2{fill:#00cbda}.cls-3{fill:url(#linear-gradient)}.cls-4{fill:url(#linear-gradient-2)}.cls-5{fill:url(#linear-gradient-3)}.cls-6{fill:url(#linear-gradient-4)}.cls-7{fill:url(#linear-gradient-5)}
        </style>
        <linearGradient id="linear-gradient" x1="79.529" x2="81.05" y1="168.968" y2="168.968" gradientUnits="objectBoundingBox">
            <stop offset=".013" stop-color="#481249"/>
            <stop offset=".268" stop-color="#803b83"/>
            <stop offset=".695" stop-color="#005e96"/>
            <stop offset="1" stop-color="#3c7fa7"/>
        </linearGradient>
        <linearGradient id="linear-gradient-2" x2="1" y1="5.049" y2="5.049" gradientUnits="objectBoundingBox">
            <stop offset="0" stop-color="#a35494"/>
            <stop offset=".1" stop-color="#755b9e"/>
            <stop offset=".221" stop-color="#4363a8"/>
            <stop offset=".328" stop-color="#1e68b0"/>
            <stop offset=".415" stop-color="#086cb4"/>
            <stop offset=".47" stop-color="#006db6"/>
            <stop offset=".584" stop-color="#0271b7"/>
            <stop offset=".704" stop-color="#077eb9"/>
            <stop offset=".826" stop-color="#0f93bd"/>
            <stop offset=".949" stop-color="#00cbda"/>
            <stop offset="1" stop-color="#00cbda"/>
        </linearGradient>
        <linearGradient id="linear-gradient-3" x2="1" y1="3.69" y2="3.69" gradientUnits="objectBoundingBox">
            <stop offset="0" stop-color="#481249"/>
            <stop offset=".428" stop-color="#a35494"/>
            <stop offset="1" stop-color="#00cbda"/>
        </linearGradient>
        <linearGradient id="linear-gradient-4" x2="1" y1="4.387" y2="4.387" gradientUnits="objectBoundingBox">
            <stop offset="0" stop-color="#00cbda"/>
            <stop offset=".843" stop-color="#1649a3"/>
        </linearGradient>
        <linearGradient id="linear-gradient-5" x2="1" y1="2.267" y2="2.267" gradientUnits="objectBoundingBox">
            <stop offset=".013" stop-color="#481249"/>
            <stop offset=".374" stop-color="#a35494"/>
            <stop offset="1" stop-color="#1649a3"/>
            <stop offset="1" stop-color="#1873b1"/>
        </linearGradient>
    </defs>
    <g id="BIRDIE" transform="translate(-124.904 -81.783)">
        <g id="Group_18" data-name="Group 18">
            <g id="Group_15" data-name="Group 15">
                <path id="Path_24" d="M176.01 111.545a4.2 4.2 0 0 1-2.2-.576 4.371 4.371 0 0 1-1.546-1.562v1.938h-1.954V96.487h2.215v6.223a4.934 4.934 0 0 1 1.557-1.606 4 4 0 0 1 2.2-.587 4.123 4.123 0 0 1 1.919.454 4.672 4.672 0 0 1 1.48 1.218 5.573 5.573 0 0 1 .942 1.771 6.752 6.752 0 0 1 .329 2.1 5.962 5.962 0 0 1-.384 2.137 5.451 5.451 0 0 1-1.052 1.738 4.839 4.839 0 0 1-1.568 1.173 4.373 4.373 0 0 1-1.938.437zm-.581-1.915a2.917 2.917 0 0 0 1.326-.3 3.324 3.324 0 0 0 1.041-.786 3.564 3.564 0 0 0 .68-1.13 3.731 3.731 0 0 0 .241-1.351 4.153 4.153 0 0 0-.23-1.373 3.734 3.734 0 0 0-.647-1.163 3.339 3.339 0 0 0-.986-.808 2.692 2.692 0 0 0-1.261-.31 2.556 2.556 0 0 0-.976.188 3.254 3.254 0 0 0-.844.5 4.013 4.013 0 0 0-.7.73 5.592 5.592 0 0 0-.537.886v2.812a2.043 2.043 0 0 0 .428.841 3.148 3.148 0 0 0 .712.664 3.86 3.86 0 0 0 .877.443 2.491 2.491 0 0 0 .876.157z" class="cls-1" data-name="Path 24"/>
                <path id="Path_25" d="M183.946 98.945v-2.458h2.214v2.458zm0 12.4v-10.64h2.214v10.64z" class="cls-1" data-name="Path 25"/>
                <path id="Path_26" d="M195.7 102.632a4.919 4.919 0 0 0-2.28.6 3.315 3.315 0 0 0-1.436 1.595v6.51h-2.214v-10.64h2.061v2.38a5.407 5.407 0 0 1 1.436-1.794 2.937 2.937 0 0 1 1.864-.7h.329a1.339 1.339 0 0 1 .23.022v2.026z" class="cls-1" data-name="Path 26"/>
                <path id="Path_27" d="M202.34 111.545a4.659 4.659 0 0 1-3.585-1.628 5.476 5.476 0 0 1-1.041-1.749 5.957 5.957 0 0 1-.373-2.137 6.578 6.578 0 0 1 .351-2.148 5.4 5.4 0 0 1 .976-1.749 4.772 4.772 0 0 1 1.5-1.185 4.245 4.245 0 0 1 1.908-.443 3.965 3.965 0 0 1 2.192.609 4.431 4.431 0 0 1 1.513 1.583v-6.222H208v12.213c0 .465.219.709.647.731v1.915a4.666 4.666 0 0 1-.6.077c-.175.011-.34.022-.482.022a1.363 1.363 0 0 1-1.414-1.163l-.044-.874a4.187 4.187 0 0 1-1.611 1.583 4.269 4.269 0 0 1-2.156.565zm.57-1.915a2.618 2.618 0 0 0 .888-.166 3.748 3.748 0 0 0 .866-.443 3.132 3.132 0 0 0 .7-.675 2.494 2.494 0 0 0 .428-.83v-2.79a3.376 3.376 0 0 0-.5-.908 4.193 4.193 0 0 0-.735-.731 3.29 3.29 0 0 0-.877-.487 2.733 2.733 0 0 0-.932-.177 2.621 2.621 0 0 0-1.283.31 3.175 3.175 0 0 0-.986.808 3.888 3.888 0 0 0-.636 1.174 4.093 4.093 0 0 0-.219 1.351 3.873 3.873 0 0 0 .252 1.384 3.47 3.47 0 0 0 .691 1.13 3.155 3.155 0 0 0 1.041.764 2.858 2.858 0 0 0 1.303.286z" class="cls-1" data-name="Path 27"/>
                <path id="Path_28" d="M211.877 98.945v-2.458h2.215v2.458zm0 12.4v-10.64h2.215v10.64z" class="cls-1" data-name="Path 28"/>
                <path id="Path_29" d="M222.511 111.545a5.594 5.594 0 0 1-2.236-.432 5.026 5.026 0 0 1-1.721-1.2 5.443 5.443 0 0 1-1.107-1.749 5.714 5.714 0 0 1-.394-2.115 5.813 5.813 0 0 1 .394-2.126 5.546 5.546 0 0 1 1.107-1.771 5.135 5.135 0 0 1 1.721-1.2 5.665 5.665 0 0 1 2.258-.443 5.361 5.361 0 0 1 3.924 1.639 5.024 5.024 0 0 1 1.074 1.727 5.726 5.726 0 0 1 .373 2.071c0 .166-.011.31-.022.454a2.431 2.431 0 0 1-.044.354H219.4a3.873 3.873 0 0 0 .329 1.284 3.544 3.544 0 0 0 .7.985 3.1 3.1 0 0 0 .986.642 2.968 2.968 0 0 0 1.162.222 3.344 3.344 0 0 0 .877-.111 3.688 3.688 0 0 0 .8-.321 2.983 2.983 0 0 0 .647-.52 2.509 2.509 0 0 0 .449-.675l1.9.554a4.414 4.414 0 0 1-1.809 1.96 5.5 5.5 0 0 1-2.93.771zm3.2-6.333a3.828 3.828 0 0 0-.329-1.24 3.467 3.467 0 0 0-.691-.963 3.166 3.166 0 0 0-2.17-.842 3.267 3.267 0 0 0-1.184.222 3.2 3.2 0 0 0-.976.62 2.881 2.881 0 0 0-.68.963 3.558 3.558 0 0 0-.318 1.24z" class="cls-1" data-name="Path 29"/>
            </g>
            <g id="Group_17" data-name="Group 17">
                <g id="Group_16" data-name="Group 16">
                    <path id="Path_30" d="M137.818 109.652a23.6 23.6 0 0 1-3.321 3.4v-5.072a20.8 20.8 0 0 0 3.321 1.672z" class="cls-2" data-name="Path 30"/>
                    <path id="Path_31" d="M157.407 85.293h.044a10.057 10.057 0 0 0-8.584-1.628c-4.746 1.251-7.059 5.115-7.563 10.009a21.837 21.837 0 0 0 .1 6.4 21.131 21.131 0 0 0-6.904-6.034v-8.027c0-2.292 2.192-4.208 4.878-4.208h3.486a5.393 5.393 0 0 1 2.083.443 13.54 13.54 0 0 1 3.585-.465 12.828 12.828 0 0 1 9.033 3.543c-.026.011-.07.001-.158-.033z" class="cls-2" data-name="Path 31"/>
                    <path id="Path_32" d="M162.559 107.836c0 6.577-6.237 11.914-13.933 11.914a16.489 16.489 0 0 1-3.661-.41 5.462 5.462 0 0 1-2.1.443h-3.486a5.772 5.772 0 0 1-1.535-.222 24.969 24.969 0 0 0 3.19-.62c10.688-2.812 17.024-12.136 14.963-21.414a15.255 15.255 0 0 0-.592-1.9 16.608 16.608 0 0 0-1.349-2.735c-.1-.177-.219-.4-.339-.664-.1-.21-.362-.786-.362-.786-.888-2.857 1.381-5.414 4.209-6.079a9.086 9.086 0 0 1-.044 13.32 11.289 11.289 0 0 1 5.039 9.153z" class="cls-2" data-name="Path 32"/>
                    <path id="Path_33" d="M143.113 88.471a7.85 7.85 0 0 1 .68-1.318 7.85 7.85 0 0 0-.68 1.318z" class="cls-3" data-name="Path 33"/>
                    <path id="Path_34" d="M157.451 85.293h-.044a13.374 13.374 0 0 0-4.165.409c-5.36 1.417-10.589 8.88-11.686 14.627a.06.06 0 0 1-.066.044c-.033 0-.066-.011-.066-.055a22.509 22.509 0 0 1-.121-6.643c.5-4.905 2.817-8.769 7.563-10.009a10.087 10.087 0 0 1 8.585 1.627z" class="cls-4" data-name="Path 34"/>
                    <path id="Path_35" d="M144.866 110.018a13.2 13.2 0 0 0-3.749-7.241 15.542 15.542 0 0 0-6.643-3.875 19.184 19.184 0 0 0-6.665-.731c-.471.022-1.173.044-1.633.1a19.049 19.049 0 0 1-1.272-7.064 24.883 24.883 0 0 1 9.57 2.845 20.55 20.55 0 0 1 6.917 6.034 18.615 18.615 0 0 1 3.475 9.932z" class="cls-5" data-name="Path 35"/>
                    <path id="Path_36" d="M145.031 111.424a25.9 25.9 0 0 1-7.235-1.771 22.8 22.8 0 0 1-3.321-1.672 19.551 19.551 0 0 1-8.244-9.577c-.022-.044-.033-.1-.054-.144.46-.056 1.162-.066 1.633-.1a19.766 19.766 0 0 1 6.665.731 15.547 15.547 0 0 1 6.643 3.875 13.2 13.2 0 0 1 3.749 7.241 12.444 12.444 0 0 1 .164 1.417z" class="cls-6" data-name="Path 36"/>
                    <path id="Path_37" d="M141.03 118.931a24.97 24.97 0 0 1-3.19.62 24.5 24.5 0 0 1-12.858-1.816c.3-.067.592-.133.877-.21a23.751 23.751 0 0 0 5.415-2.137 23.876 23.876 0 0 0 7.059-.974 22.692 22.692 0 0 0 10.776-6.621 18.065 18.065 0 0 0 4.582-9.367 18.6 18.6 0 0 0-.351-7.02s.263.6.362.8c.121.266.252.487.34.665a17.555 17.555 0 0 1 1.348 2.729 18.2 18.2 0 0 1 .592 1.9c2.072 9.3-4.264 18.619-14.952 21.431z" class="cls-7" data-name="Path 37"/>
                </g>
            </g>
        </g>
    </g>
</svg>
