<?xml version="1.0" encoding="utf-8"?>
<!-- Generator: Adobe Illustrator 23.0.1, SVG Export Plug-In . SVG Version: 6.00 Build 0)  -->
<svg version="1.1" id="Layer_1" xmlns="http://www.w3.org/2000/svg" xmlns:xlink="http://www.w3.org/1999/xlink" x="0px" y="0px"
	 viewBox="0 0 170.13 240" style="enable-background:new 0 0 170.13 240;" xml:space="preserve">
<g>
	<g>
		<path d="M68.47,206.72c-3.04,0-5.73,1.57-7.39,3.97c-1.66-2.41-4.35-3.97-7.39-3.97c-2.13,0-4.1,0.78-5.65,2.07v-0.19
			c0-0.96-0.78-1.74-1.74-1.74c-0.96,0-1.74,0.78-1.74,1.74v7.73v8.65v13.19c0,0.96,0.78,1.74,1.74,1.74c0.96,0,1.74-0.78,1.74-1.74
			v-13.19v-8.65c0-3.38,2.54-6.13,5.65-6.13c3.12,0,5.65,2.75,5.65,6.13v13.7c0,0.96,0.78,1.74,1.74,1.74
			c0.96,0,1.74-0.78,1.74-1.74v-13.7c0-3.38,2.53-6.13,5.65-6.13c3.11,0,5.65,2.75,5.65,6.13c0,0,0,0,0,0l-0.01,13.39
			c0,0.96,0.78,1.74,1.74,1.74h0c0.96,0,1.74-0.78,1.74-1.74l0-4.68c0-0.02,0.01-0.04,0.01-0.06v-8.65
			C77.6,211.03,73.5,206.72,68.47,206.72"/>
		<path d="M36.56,206.86c-0.96,0-1.74,0.78-1.74,1.74v4.66c-3.03-3.89-7.75-6.4-13.04-6.4c-9.11,0-16.52,7.41-16.52,16.52
			c0,0.98,0.09,1.96,0.26,2.91c0.17,0.95,1.08,1.57,2.02,1.41c0.95-0.17,1.58-1.07,1.41-2.02c-0.13-0.76-0.2-1.53-0.2-2.31
			c0-7.19,5.85-13.04,13.04-13.04c7.19,0,13.04,5.85,13.04,13.04s-5.85,13.04-13.04,13.04c-1.67,0-3.3-0.31-4.83-0.92
			c-0.89-0.36-1.9,0.08-2.26,0.97c-0.36,0.89,0.08,1.9,0.97,2.26c1.95,0.78,4.01,1.17,6.12,1.17c5.3,0,10.02-2.51,13.04-6.4v4.66
			c0,0.96,0.78,1.74,1.74,1.74c0.96,0,1.74-0.78,1.74-1.74V208.6C38.3,207.64,37.52,206.86,36.56,206.86"/>
		<path d="M98.68,206.86H85.74c-0.96,0-1.74,0.78-1.74,1.74c0,0.96,0.78,1.74,1.74,1.74h12.93c3.03,0,5.49,2.46,5.49,5.49v0.11
			c0,3.03-2.46,5.49-5.49,5.49H85.74c-0.96,0-1.74,0.78-1.74,1.74c0,0.96,0.78,1.74,1.74,1.74h12.93c3.03,0,5.49,2.46,5.49,5.49
			v0.11c0,3.03-2.46,5.49-5.49,5.49H85.74c-0.96,0-1.74,0.78-1.74,1.74c0,0.96,0.78,1.74,1.74,1.74h12.93
			c4.94,0,8.97-4.02,8.97-8.97v-0.11c0-2.97-1.45-5.6-3.68-7.23c2.23-1.63,3.68-4.26,3.68-7.23v-0.11
			C107.64,210.88,103.62,206.86,98.68,206.86"/>
		<path d="M168.73,206.86c-4.94,0-9.53,2.25-12.61,5.87v-4.13c0-0.96-0.78-1.74-1.74-1.74c-0.96,0-1.74,0.78-1.74,1.74v29.56
			c0,0.96,0.78,1.74,1.74,1.74c0.96,0,1.74-0.78,1.74-1.74v-18.24c0.04-0.08,0.08-0.17,0.1-0.26c1.63-5.49,6.77-9.32,12.51-9.32
			c0.96,0,1.74-0.78,1.74-1.74C170.47,207.64,169.69,206.86,168.73,206.86"/>
		<path d="M144.38,206.86c-0.96,0-1.74,0.78-1.74,1.74v4.66c-3.03-3.89-7.75-6.4-13.04-6.4c-9.11,0-16.52,7.41-16.52,16.52
			c0,0.98,0.09,1.96,0.26,2.91c0.17,0.95,1.08,1.57,2.02,1.41c0.95-0.17,1.58-1.07,1.41-2.02c-0.13-0.76-0.2-1.53-0.2-2.31
			c0-7.19,5.85-13.04,13.04-13.04c7.19,0,13.04,5.85,13.04,13.04s-5.85,13.04-13.04,13.04c-1.67,0-3.3-0.31-4.83-0.92
			c-0.89-0.36-1.9,0.08-2.26,0.97c-0.36,0.89,0.08,1.9,0.97,2.26c1.95,0.78,4.01,1.17,6.12,1.17c5.3,0,10.02-2.51,13.04-6.4v4.66
			c0,0.96,0.78,1.74,1.74,1.74c0.96,0,1.74-0.78,1.74-1.74V208.6C146.12,207.64,145.34,206.86,144.38,206.86"/>
	</g>
	<path d="M85.44,0.04c-46.72,0-84.59,37.87-84.59,84.59s37.87,84.59,84.59,84.59s84.59-37.87,84.59-84.59S132.16,0.04,85.44,0.04z
		 M119.96,121.97c-2.28,0.01-4.14-1.82-4.16-4.1l-0.08-11.88c-7.11,9.24-18.24,15.25-30.77,15.33c-4.26,0.03-8.45-0.63-12.46-1.94
		c-2.17-0.71-3.35-3.05-2.64-5.21c0.71-2.17,3.05-3.35,5.21-2.63c3.16,1.04,6.47,1.55,9.84,1.53c17.02-0.11,30.78-14.05,30.67-31.07
		c-0.11-17.02-14.05-30.78-31.07-30.67c-17.02,0.11-30.78,14.05-30.67,31.07c0.01,2.28-1.82,4.14-4.1,4.16
		c-2.28,0.01-4.14-1.82-4.16-4.1c-0.14-21.58,17.3-39.24,38.88-39.38c12.54-0.08,23.74,5.78,30.97,14.93l-0.07-11
		c-0.01-2.28,1.82-4.14,4.1-4.15c2.28-0.01,4.14,1.82,4.16,4.1l0.46,70.88C124.07,120.09,122.24,121.95,119.96,121.97z"/>
</g>
</svg>
